<svg xmlns="http://www.w3.org/2000/svg" width="49" height="48" viewBox="0 0 49 48" fill="none">
  <circle cx="24.6719" cy="24" r="23.5" fill="white" stroke="#E0E0E0"/>
  <g transform="translate(13.6719, 13)">
    <path d="M22 11.2364C22 10.4637 21.9354 9.71818 21.8145 9H11.2V13.2727H17.2073C16.9618 14.6455 16.1618 15.8182 14.9709 16.5818V19.3636H18.5891C20.6891 17.4545 22 14.6 22 11.2364Z" fill="#4285F4"/>
    <path d="M11.2 22C14.2182 22 16.7564 21.0182 18.5891 19.3636L14.9709 16.5818C13.9564 17.2727 12.6873 17.6818 11.2 17.6818C8.29455 17.6818 5.81818 15.7273 4.92364 13.1H1.19091V15.9636C2.99091 19.5364 6.79091 22 11.2 22Z" fill="#34A853"/>
    <path d="M4.92364 13.1C4.70909 12.4091 4.58909 11.6727 4.58909 10.9091C4.58909 10.1455 4.70909 9.40909 4.92364 8.71818V5.85455H1.19091C0.433636 7.36364 0 9.09091 0 10.9091C0 12.7273 0.433636 14.4545 1.19091 15.9636L4.92364 13.1Z" fill="#FBBC05"/>
    <path d="M11.2 4.13636C12.8509 4.13636 14.3382 4.68182 15.5291 5.82727L18.7255 2.63636C16.7564 1 14.2182 0 11.2 0C6.79091 0 2.99091 2.46364 1.19091 6.03636L4.92364 8.9C5.81818 6.27273 8.29455 4.13636 11.2 4.13636Z" fill="#EA4335"/>
  </g>
</svg>
