<svg width="32" height="32" viewBox="0 0 32 32" fill="none" xmlns="http://www.w3.org/2000/svg">
<circle cx="16" cy="16" r="15.5" fill="#FF7600" stroke="#FFF8EE"/>
<path d="M23.3334 20.6667C23.3334 21.0203 23.1929 21.3594 22.9429 21.6095C22.6928 21.8595 22.3537 22 22.0001 22H10.0001C9.64646 22 9.30732 21.8595 9.05727 21.6095C8.80722 21.3594 8.66675 21.0203 8.66675 20.6667V13.3333C8.66675 12.9797 8.80722 12.6406 9.05727 12.3905C9.30732 12.1405 9.64646 12 10.0001 12H12.6667L14.0001 10H18.0001L19.3334 12H22.0001C22.3537 12 22.6928 12.1405 22.9429 12.3905C23.1929 12.6406 23.3334 12.9797 23.3334 13.3333V20.6667Z" stroke="#FFF8EE" stroke-width="1.2" stroke-linecap="round" stroke-linejoin="round"/>
<path d="M15.9999 19.3333C17.4727 19.3333 18.6666 18.1394 18.6666 16.6667C18.6666 15.1939 17.4727 14 15.9999 14C14.5272 14 13.3333 15.1939 13.3333 16.6667C13.3333 18.1394 14.5272 19.3333 15.9999 19.3333Z" stroke="#FFF8EE" stroke-width="1.2" stroke-linecap="round" stroke-linejoin="round"/>
</svg>
