<svg width="22" height="20" viewBox="0 0 22 20" fill="none" xmlns="http://www.w3.org/2000/svg">
<path d="M19.4734 2.73215C19.9892 3.2493 20.3982 3.86323 20.6773 4.53883C20.9563 5.21443 21.0999 5.93851 21.0999 6.66972C21.0999 7.40093 20.9563 8.125 20.6773 8.80061C20.3982 9.47617 19.9892 10.0901 19.4735 10.6072C19.4735 10.6072 19.4735 10.6073 19.4734 10.6073L18.4999 11.584L11.3538 18.753C11.26 18.8471 11.1325 18.9 10.9997 18.9C10.8668 18.9 10.7394 18.8471 10.6455 18.753L3.49943 11.584L2.52579 10.6072C1.48457 9.56265 0.899902 8.14626 0.899902 6.66972C0.899902 5.19318 1.48457 3.77679 2.52579 2.73223C3.56707 1.68762 4.97969 1.10047 6.45297 1.10047C7.92625 1.10047 9.33886 1.68762 10.3801 2.73223L10.9997 3.35373L11.6191 2.73231M19.4734 2.73215C19.4735 2.7322 19.4735 2.73226 19.4736 2.73231L19.1194 3.08522L19.4734 2.73215ZM19.4734 2.73215C18.958 2.21483 18.3459 1.80437 17.6721 1.52429C16.9982 1.24417 16.2759 1.09998 15.5463 1.09998C14.8168 1.09998 14.0945 1.24417 13.4206 1.52429L13.6116 1.98385L13.4206 1.52429C12.7467 1.8044 12.1346 2.21492 11.6191 2.73231M11.6191 2.73231L11.6192 2.73223L11.9733 3.08522L11.6191 2.73231Z" fill="#FF7600" stroke="white" stroke-linecap="round" stroke-linejoin="round"/>
</svg>
