<svg xmlns="http://www.w3.org/2000/svg" width="42" height="42" viewBox="0 0 42 42" fill="none">
  <circle cx="21" cy="21" r="20.5" stroke="#FF7600"/>
  <path d="M29.1194 14.0852C28.6503 13.6144 28.0932 13.2408 27.4802 12.986C26.8671 12.7311 26.21 12.6 25.5463 12.6C24.8827 12.6 24.2256 12.7311 23.6125 12.986C22.9995 13.2408 22.4424 13.6144 21.9733 14.0852L20.9997 15.062L20.026 14.0852C19.0784 13.1345 17.7931 12.6005 16.453 12.6005C15.1128 12.6005 13.8275 13.1345 12.8799 14.0852C11.9323 15.0359 11.3999 16.3253 11.3999 17.6697C11.3999 19.0142 11.9323 20.3036 12.8799 21.2542L13.8535 22.231L20.9997 29.4L28.1458 22.231L29.1194 21.2542C29.5888 20.7836 29.9611 20.2248 30.2151 19.6097C30.4692 18.9947 30.5999 18.3355 30.5999 17.6697C30.5999 17.004 30.4692 16.3447 30.2151 15.7297C29.9611 15.1147 29.5888 14.5559 29.1194 14.0852Z" fill="#FF7600"/>
</svg>