<svg xmlns="http://www.w3.org/2000/svg" width="32" height="32" viewBox="0 0 32 32" fill="none">
  <circle cx="16" cy="16" r="15.5" fill="#FF7600" stroke="#FFF8EE"/>
  <path d="M16 22H22.75" stroke="#FFF8EE" stroke-width="1.2" stroke-linecap="round" stroke-linejoin="round"/>
  <path d="M19.375 9.62505C19.6734 9.32668 20.078 9.15906 20.5 9.15906C20.7089 9.15906 20.9158 9.20021 21.1088 9.28016C21.3019 9.36012 21.4773 9.47731 21.625 9.62505C21.7727 9.77278 21.8899 9.94817 21.9699 10.1412C22.0498 10.3342 22.091 10.5411 22.091 10.75C22.091 10.959 22.0498 11.1659 21.9699 11.3589C21.8899 11.5519 21.7727 11.7273 21.625 11.875L12.25 21.25L9.25 22L10 19L19.375 9.62505Z" stroke="#FFF8EE" stroke-width="1.2" stroke-linecap="round" stroke-linejoin="round"/>
</svg>