<svg width="24" height="28" viewBox="0 0 24 28" fill="none" xmlns="http://www.w3.org/2000/svg">
<path d="M23 11.6364C23 19.9091 12 27 12 27C12 27 1 19.9091 1 11.6364C1 8.81542 2.15893 6.11002 4.22183 4.11532C6.28473 2.12061 9.08262 1 12 1C14.9174 1 17.7153 2.12061 19.7782 4.11532C21.8411 6.11002 23 8.81542 23 11.6364Z" fill="#FF7600" stroke="#FF7600" stroke-width="2" stroke-linecap="round" stroke-linejoin="round"/>
<path d="M12 15.3333C14.2091 15.3333 16 13.5424 16 11.3333C16 9.12411 14.2091 7.33325 12 7.33325C9.79086 7.33325 8 9.12411 8 11.3333C8 13.5424 9.79086 15.3333 12 15.3333Z" fill="#FFF4E5"/>
</svg>
