<svg width="20" height="20" viewBox="0 0 20 20" fill="none" xmlns="http://www.w3.org/2000/svg">
<circle cx="10" cy="10" r="9.5" fill="#FF7600" stroke="#FFF8EE"/>
<path d="M15.3516 8.77963C15.3516 13.0509 10 16.7121 10 16.7121C10 16.7121 4.64844 13.0509 4.64844 8.77963C4.64844 7.32314 5.21226 5.92631 6.21587 4.89642C7.21949 3.86653 8.58068 3.28795 10 3.28795C11.4193 3.28795 12.7805 3.86653 13.7841 4.89642C14.7877 5.92631 15.3516 7.32314 15.3516 8.77963Z" fill="#FFF8EE"/>
<path d="M10.0001 11.2033C11.2337 11.2033 12.2336 10.2033 12.2336 8.96975C12.2336 7.73621 11.2337 6.73623 10.0001 6.73623C8.76658 6.73623 7.7666 7.73621 7.7666 8.96975C7.7666 10.2033 8.76658 11.2033 10.0001 11.2033Z" fill="#FF7600"/>
</svg>
