<svg width="24" height="24" viewBox="0 0 24 24" fill="none" xmlns="http://www.w3.org/2000/svg">
<path d="M17.9106 7.80258C19.2888 7.80258 20.4061 6.68529 20.4061 5.30705C20.4061 3.92881 19.2888 2.81152 17.9106 2.81152C16.5323 2.81152 15.415 3.92881 15.415 5.30705C15.415 6.68529 16.5323 7.80258 17.9106 7.80258Z" stroke="#616161" stroke-width="1.2" stroke-linecap="round" stroke-linejoin="round"/>
<path d="M6.08952 14.2828C7.46776 14.2828 8.58505 13.1655 8.58505 11.7873C8.58505 10.409 7.46776 9.29175 6.08952 9.29175C4.71128 9.29175 3.59399 10.409 3.59399 11.7873C3.59399 13.1655 4.71128 14.2828 6.08952 14.2828Z" stroke="#616161" stroke-width="1.2" stroke-linecap="round" stroke-linejoin="round"/>
<path d="M17.9106 21.1884C19.2888 21.1884 20.4061 20.0712 20.4061 18.6929C20.4061 17.3147 19.2888 16.1974 17.9106 16.1974C16.5323 16.1974 15.415 17.3147 15.415 18.6929C15.415 20.0712 16.5323 21.1884 17.9106 21.1884Z" stroke="#616161" stroke-width="1.2" stroke-linecap="round" stroke-linejoin="round"/>
<path d="M8.58496 13.2973L15.415 17.2773" stroke="#616161" stroke-width="1.2" stroke-linecap="round" stroke-linejoin="round"/>
<path d="M15.405 6.2973L8.58496 10.2773" stroke="#616161" stroke-width="1.2" stroke-linecap="round" stroke-linejoin="round"/>
</svg>
