<svg width="16" height="14" viewBox="0 0 16 14" fill="none" xmlns="http://www.w3.org/2000/svg">
<path d="M8 7.19226C7.0375 7.19226 6.21358 6.84959 5.52825 6.16426C4.84275 5.47876 4.5 4.65476 4.5 3.69226C4.5 2.72976 4.84275 1.90584 5.52825 1.22051C6.21358 0.535011 7.0375 0.192261 8 0.192261C8.9625 0.192261 9.78642 0.535011 10.4718 1.22051C11.1573 1.90584 11.5 2.72976 11.5 3.69226C11.5 4.65476 11.1573 5.47876 10.4718 6.16426C9.78642 6.84959 8.9625 7.19226 8 7.19226ZM0.5 12.2885V11.5845C0.5 11.0948 0.633 10.6413 0.899 10.224C1.165 9.80668 1.5205 9.48584 1.9655 9.26151C2.95383 8.77701 3.95092 8.41359 4.95675 8.17126C5.96258 7.92893 6.977 7.80776 8 7.80776C9.023 7.80776 10.0374 7.92893 11.0433 8.17126C12.0491 8.41359 13.0462 8.77701 14.0345 9.26151C14.4795 9.48584 14.835 9.80668 15.101 10.224C15.367 10.6413 15.5 11.0948 15.5 11.5845V12.2885C15.5 12.7102 15.3523 13.0688 15.0568 13.3645C14.7613 13.66 14.4026 13.8078 13.9808 13.8078H2.01925C1.59742 13.8078 1.23875 13.66 0.94325 13.3645C0.64775 13.0688 0.5 12.7102 0.5 12.2885ZM2 12.3078H14V11.5845C14 11.382 13.9413 11.1945 13.824 11.022C13.7067 10.8497 13.5474 10.709 13.3462 10.6C12.4846 10.1757 11.6061 9.85418 10.7107 9.63551C9.81525 9.41701 8.91167 9.30776 8 9.30776C7.08833 9.30776 6.18475 9.41701 5.28925 9.63551C4.39392 9.85418 3.51542 10.1757 2.65375 10.6C2.45258 10.709 2.29333 10.8497 2.176 11.022C2.05867 11.1945 2 11.382 2 11.5845V12.3078ZM8 5.69226C8.55 5.69226 9.02083 5.49643 9.4125 5.10476C9.80417 4.71309 10 4.24226 10 3.69226C10 3.14226 9.80417 2.67143 9.4125 2.27976C9.02083 1.88809 8.55 1.69226 8 1.69226C7.45 1.69226 6.97917 1.88809 6.5875 2.27976C6.19583 2.67143 6 3.14226 6 3.69226C6 4.24226 6.19583 4.71309 6.5875 5.10476C6.97917 5.49643 7.45 5.69226 8 5.69226Z" fill="#424242"/>
</svg>
