<svg width="32" height="32" viewBox="0 0 32 32" fill="none" xmlns="http://www.w3.org/2000/svg">
<path d="M16 29C23.1797 29 29 23.1797 29 16C29 8.8203 23.1797 3 16 3C8.8203 3 3 8.8203 3 16C3 23.1797 8.8203 29 16 29Z" stroke="currentColor" stroke-width="1.2" stroke-linecap="round" stroke-linejoin="round"/>
<path d="M12.0901 20.9067C12.4534 21.3655 12.9215 21.7303 13.4552 21.9705C13.9889 22.2106 14.5724 22.3191 15.1568 22.2867H16.9968C17.8101 22.2867 18.5901 21.9636 19.1652 21.3885C19.7403 20.8133 20.0634 20.0333 20.0634 19.22C20.0634 18.4067 19.7403 17.6266 19.1652 17.0515C18.5901 16.4764 17.8101 16.1533 16.9968 16.1533H15.0034C14.1901 16.1533 13.4101 15.8302 12.835 15.2551C12.2599 14.68 11.9368 13.9 11.9368 13.0867C11.9368 12.2733 12.2599 11.4933 12.835 10.9182C13.4101 10.3431 14.1901 10.02 15.0034 10.02H16.8434C18.2234 10.02 19.1434 10.3267 19.9101 11.4" stroke="currentColor" stroke-width="2" stroke-linecap="round" stroke-linejoin="round"/>
<path d="M15.9231 22.6667V24.3333" stroke="currentColor" stroke-width="1.2" stroke-linecap="round" stroke-linejoin="round"/>
<path d="M15.9231 8V9.66667" stroke="currentColor" stroke-width="1.2" stroke-linecap="round" stroke-linejoin="round"/>
</svg>
