<svg width="18" height="18" viewBox="0 0 18 18" fill="none" xmlns="http://www.w3.org/2000/svg">
<path d="M6.61078 11.5629C6.83275 11.8104 7.11882 12.0073 7.44492 12.1368C7.77102 12.2664 8.12759 12.3249 8.48464 12.3074H9.60895C10.1059 12.3074 10.5826 12.1331 10.934 11.8228C11.2854 11.5126 11.4828 11.0917 11.4828 10.6529C11.4828 10.2141 11.2854 9.79331 10.934 9.48304C10.5826 9.17276 10.1059 8.99845 9.60895 8.99845H8.39095C7.89397 8.99845 7.41735 8.82414 7.06593 8.51386C6.71451 8.20359 6.51709 7.78276 6.51709 7.34397C6.51709 6.90517 6.71451 6.48435 7.06593 6.17407C7.41735 5.86379 7.89397 5.68948 8.39095 5.68948H9.51526C10.3585 5.68948 10.9207 5.85493 11.3891 6.434" stroke="currentColor" stroke-width="1.2" stroke-linecap="round" stroke-linejoin="round"/>
<path d="M9 12.4782V13.4353" stroke="currentColor" stroke-width="1.2" stroke-linecap="round" stroke-linejoin="round"/>
<path d="M9 4.57834V5.20375" stroke="currentColor" stroke-width="1.2" stroke-linecap="round" stroke-linejoin="round"/>
<path d="M17 17H15.2222H10.7778H7.22222H2.77778H1" stroke="currentColor" stroke-width="1.2" stroke-linecap="round" stroke-linejoin="round"/>
<path d="M2.5 16.7692V2.23077C2.5 1.90435 2.62451 1.5913 2.84615 1.36048C3.06778 1.12967 3.36838 1 3.68182 1H14.3182C14.6316 1 14.9322 1.12967 15.1539 1.36048C15.3755 1.5913 15.5 1.90435 15.5 2.23077V16.7692" stroke="currentColor" stroke-width="1.2" stroke-linecap="round" stroke-linejoin="round"/>
</svg>
