<svg width="32" height="32" viewBox="0 0 32 32" fill="none" xmlns="http://www.w3.org/2000/svg">
<path d="M23.3335 12.3333H24.6668C26.0813 12.3333 27.4379 12.8952 28.4381 13.8953C29.4383 14.8955 30.0002 16.2521 30.0002 17.6666C30.0002 19.0811 29.4383 20.4376 28.4381 21.4378C27.4379 22.438 26.0813 22.9999 24.6668 22.9999H23.3335" stroke="currentColor" stroke-width="1.2" stroke-linecap="round" stroke-linejoin="round"/>
<path d="M2 12.3333H23.3333V24.3333C23.3333 25.7477 22.7714 27.1043 21.7712 28.1045C20.771 29.1047 19.4145 29.6666 18 29.6666H7.33333C5.91885 29.6666 4.56229 29.1047 3.5621 28.1045C2.5619 27.1043 2 25.7477 2 24.3333V12.3333Z" stroke="currentColor" stroke-width="1.2" stroke-linecap="round" stroke-linejoin="round"/>
<path d="M7.3335 3V7" stroke="currentColor" stroke-width="2" stroke-linecap="round" stroke-linejoin="round"/>
<path d="M12.6667 3V7" stroke="currentColor" stroke-width="2" stroke-linecap="round" stroke-linejoin="round"/>
<path d="M18 3V7" stroke="currentColor" stroke-width="2" stroke-linecap="round" stroke-linejoin="round"/>
</svg>
