<svg width="16" height="16" viewBox="0 0 16 16" fill="none" xmlns="http://www.w3.org/2000/svg">
<rect x="0.6" y="0.6" width="14.8" height="14.8" rx="1.4" stroke="currentColor" stroke-width="1.2"/>
<path fill-rule="evenodd" clip-rule="evenodd" d="M8.61426 10.2834H8.07349V12.7654H8.61426V10.2834Z" fill="currentColor"/>
<path fill-rule="evenodd" clip-rule="evenodd" d="M6.90885 10.2695V10.5191C6.70086 10.3666 6.45127 10.2695 6.17396 10.2695C5.48066 10.2695 4.92603 10.8242 4.92603 11.5175C4.92603 12.2108 5.48066 12.7654 6.17396 12.7654C6.45127 12.7654 6.70086 12.6683 6.90885 12.5158V12.7377H7.44962V10.2557H6.90885V10.2695ZM6.20169 12.1692C5.82731 12.1692 5.52226 11.8641 5.52226 11.4897C5.52226 11.1154 5.82731 10.8103 6.20169 10.8103C6.57607 10.8103 6.88112 11.1154 6.88112 11.4897C6.88112 11.8641 6.57607 12.1692 6.20169 12.1692Z" fill="currentColor"/>
<path fill-rule="evenodd" clip-rule="evenodd" d="M10.6246 11.0599C10.5968 10.8519 10.4166 10.7133 10.1531 10.7133C10.0145 10.7133 9.69555 10.7687 9.69555 10.9351C9.69555 11.1986 10.167 11.2263 10.2779 11.2402C11.0267 11.3095 11.2485 11.6284 11.2485 12.0028C11.2485 12.2801 11.1099 12.4881 10.9019 12.6406C10.7216 12.7654 10.3611 12.8209 10.1393 12.8209C9.65395 12.8209 9.15478 12.5574 9.08545 11.9751H9.64008C9.66782 12.2524 9.97287 12.3633 10.1393 12.3633C10.4443 12.3633 10.6662 12.2385 10.6662 12.086C10.6662 11.8503 10.4443 11.8087 10.1115 11.7671C9.93127 11.7393 9.58462 11.6839 9.4321 11.5729C9.27957 11.4482 9.14091 11.3095 9.14091 11.0599C9.14091 10.6301 9.48756 10.2834 10.1809 10.2834C10.7494 10.2834 11.1792 10.6023 11.2069 11.0876H10.6523L10.6246 11.0599Z" fill="currentColor"/>
<path fill-rule="evenodd" clip-rule="evenodd" d="M3.98282 9.40987V10.5053C3.77484 10.3528 3.52525 10.2557 3.24793 10.2557C2.55464 10.2557 2 10.8103 2 11.5036C2 12.1969 2.5685 12.7516 3.24793 12.7516C3.52525 12.7516 3.77484 12.6545 3.98282 12.502V12.7238H4.52359V9.38214H3.98282V9.40987ZM3.27566 12.1692C2.90128 12.1692 2.59623 11.8641 2.59623 11.4898C2.59623 11.1154 2.90128 10.8103 3.27566 10.8103C3.65004 10.8103 3.95509 11.1154 3.95509 11.4898C3.95509 11.8641 3.65004 12.1692 3.27566 12.1692Z" fill="currentColor"/>
<path fill-rule="evenodd" clip-rule="evenodd" d="M12.8016 10.2557C12.1083 10.2557 11.5398 10.8242 11.5398 11.5175C11.5398 12.2108 12.1083 12.7793 12.8016 12.7793C13.4949 12.7793 14.0634 12.2108 14.0634 11.5175C14.0634 10.8242 13.4949 10.2557 12.8016 10.2557ZM12.8016 12.2108C12.4272 12.2108 12.1083 11.9057 12.1083 11.5175C12.1083 11.1292 12.4133 10.8242 12.8016 10.8242C13.1898 10.8242 13.4949 11.1292 13.4949 11.5175C13.4949 11.9057 13.1898 12.2108 12.8016 12.2108Z" fill="currentColor"/>
</svg>
