<svg width="32" height="32" viewBox="0 0 32 32" fill="none" xmlns="http://www.w3.org/2000/svg">
<rect x="3.6" y="3.6" width="24.8" height="24.8" rx="3.4" stroke="currentColor" stroke-width="1.2"/>
<rect x="3.6" y="3.6" width="24.8" height="24.8" rx="3.4" stroke="currentColor" stroke-opacity="0.2" stroke-width="1.2"/>
<path d="M4 8H28" stroke="currentColor" stroke-width="2"/>
<path fill-rule="evenodd" clip-rule="evenodd" d="M9.89457 14.7417C8.95804 14.7417 8.18359 15.4981 8.18359 16.4527C8.18359 17.4072 8.94003 18.1637 9.89457 18.1637C10.8491 18.1637 11.6055 17.3892 11.6055 16.4527C11.6055 15.5161 10.8491 14.7417 9.89457 14.7417ZM9.89457 17.3892C9.37227 17.3892 8.95804 16.975 8.95804 16.4527C8.95804 15.9304 9.37227 15.5161 9.89457 15.5161C10.4169 15.5161 10.8311 15.9304 10.8311 16.4527C10.8311 16.975 10.4169 17.3892 9.89457 17.3892Z" fill="currentColor"/>
<path fill-rule="evenodd" clip-rule="evenodd" d="M16.0181 14.7417C15.0816 14.7417 14.3071 15.4981 14.3071 16.4527C14.3071 17.4072 15.0816 18.1637 16.0181 18.1637C16.9546 18.1637 17.7291 17.3892 17.7291 16.4527C17.7291 15.5161 16.9546 14.7417 16.0181 14.7417ZM16.0181 17.3892C15.4958 17.3892 15.0816 16.975 15.0816 16.4527C15.0816 15.9304 15.4958 15.5161 16.0181 15.5161C16.5404 15.5161 16.9546 15.9304 16.9546 16.4527C16.9546 16.975 16.5404 17.3892 16.0181 17.3892Z" fill="currentColor"/>
<path fill-rule="evenodd" clip-rule="evenodd" d="M22.1236 14.7417C21.187 14.7417 20.4126 15.4981 20.4126 16.4527C20.4126 17.4072 21.169 18.1637 22.1236 18.1637C23.0781 18.1637 23.8346 17.3892 23.8346 16.4527C23.8346 15.5161 23.0781 14.7417 22.1236 14.7417ZM22.1236 17.3892C21.6013 17.3892 21.187 16.975 21.187 16.4527C21.187 15.9304 21.6013 15.5161 22.1236 15.5161C22.6459 15.5161 23.0601 15.9304 23.0601 16.4527C23.0601 16.975 22.6459 17.3892 22.1236 17.3892Z" fill="currentColor"/>
<path fill-rule="evenodd" clip-rule="evenodd" d="M16.7566 20.9551H16.0542V24.1789H16.7566V20.9551Z" fill="currentColor"/>
<path fill-rule="evenodd" clip-rule="evenodd" d="M14.5413 20.9372V21.2614C14.2711 21.0633 13.947 20.9372 13.5867 20.9372C12.6862 20.9372 11.9658 21.6576 11.9658 22.5581C11.9658 23.4586 12.6862 24.1791 13.5867 24.1791C13.947 24.1791 14.2711 24.053 14.5413 23.8549V24.143H15.2437V20.9192H14.5413V20.9372ZM13.6228 23.4046C13.1365 23.4046 12.7403 23.0084 12.7403 22.5221C12.7403 22.0358 13.1365 21.6396 13.6228 21.6396C14.109 21.6396 14.5053 22.0358 14.5053 22.5221C14.5053 23.0084 14.109 23.4046 13.6228 23.4046Z" fill="currentColor"/>
<path fill-rule="evenodd" clip-rule="evenodd" d="M19.368 21.9637C19.332 21.6935 19.0979 21.5134 18.7557 21.5134C18.5756 21.5134 18.1613 21.5854 18.1613 21.8016C18.1613 22.1438 18.7737 22.1798 18.9178 22.1978C19.8903 22.2878 20.1785 22.7021 20.1785 23.1884C20.1785 23.5486 19.9984 23.8187 19.7282 24.0168C19.4941 24.1789 19.0258 24.251 18.7377 24.251C18.1073 24.251 17.4589 23.9088 17.3689 23.1523H18.0893C18.1253 23.5125 18.5216 23.6566 18.7377 23.6566C19.1339 23.6566 19.4221 23.4945 19.4221 23.2964C19.4221 22.9902 19.1339 22.9362 18.7017 22.8822C18.4675 22.8462 18.0173 22.7741 17.8192 22.63C17.621 22.4679 17.4409 22.2878 17.4409 21.9637C17.4409 21.4053 17.8912 20.9551 18.7917 20.9551C19.5301 20.9551 20.0885 21.3693 20.1245 21.9997H19.4041L19.368 21.9637Z" fill="currentColor"/>
<path fill-rule="evenodd" clip-rule="evenodd" d="M10.741 19.8204V21.2433C10.4708 21.0451 10.1467 20.9191 9.78645 20.9191C8.88594 20.9191 8.16553 21.6395 8.16553 22.54C8.16553 23.4405 8.90395 24.1609 9.78645 24.1609C10.1467 24.1609 10.4708 24.0349 10.741 23.8367V24.1249H11.4434V19.7844H10.741V19.8204ZM9.82247 23.4045C9.3362 23.4045 8.93997 23.0083 8.93997 22.522C8.93997 22.0357 9.3362 21.6395 9.82247 21.6395C10.3088 21.6395 10.705 22.0357 10.705 22.522C10.705 23.0083 10.3088 23.4045 9.82247 23.4045Z" fill="currentColor"/>
<path fill-rule="evenodd" clip-rule="evenodd" d="M22.1956 20.9192C21.2951 20.9192 20.5566 21.6576 20.5566 22.5581C20.5566 23.4586 21.2951 24.1971 22.1956 24.1971C23.0961 24.1971 23.8345 23.4586 23.8345 22.5581C23.8345 21.6576 23.0961 20.9192 22.1956 20.9192ZM22.1956 23.4586C21.7093 23.4586 21.2951 23.0624 21.2951 22.5581C21.2951 22.0538 21.6913 21.6576 22.1956 21.6576C22.6999 21.6576 23.0961 22.0538 23.0961 22.5581C23.0961 23.0624 22.6999 23.4586 22.1956 23.4586Z" fill="currentColor"/>
</svg>
