<svg width="16" height="16" viewBox="0 0 16 18" fill="none" xmlns="http://www.w3.org/2000/svg">
<path d="M14.5 4.40008L14.5 1.60001C14.5 1.44088 14.4178 1.28826 14.2715 1.17574C14.1253 1.06322 13.9269 1 13.72 1L2.28 0.999999C2.17757 0.999999 2.07614 1.01552 1.98151 1.04567C1.88687 1.07583 1.80089 1.12002 1.72846 1.17574C1.65603 1.23146 1.59857 1.2976 1.55937 1.3704C1.52017 1.4432 1.5 1.52122 1.5 1.60001L1.5 4.40008C1.5 4.47888 1.52017 4.5569 1.55937 4.6297C1.59857 4.7025 1.65603 4.76864 1.72846 4.82436C1.80089 4.88008 1.88687 4.92427 1.98151 4.95443C2.07614 4.98458 2.17757 5.0001 2.28 5.0001L13.72 5.0001C13.9269 5.0001 14.1253 4.93688 14.2715 4.82436C14.4178 4.71184 14.5 4.55922 14.5 4.40008ZM14.5 16.4004L14.5 13.6003C14.5 13.4412 14.4178 13.2886 14.2715 13.176C14.1253 13.0635 13.9269 13.0003 13.72 13.0003L2.28 13.0003C2.17757 13.0003 2.07614 13.0158 1.98151 13.046C1.88687 13.0761 1.80089 13.1203 1.72846 13.176C1.65603 13.2318 1.59857 13.2979 1.55937 13.3707C1.52017 13.4435 1.5 13.5215 1.5 13.6003L1.5 16.4004C1.5 16.4792 1.52017 16.5572 1.55937 16.63C1.59857 16.7028 1.65603 16.7689 1.72846 16.8247C1.80089 16.8804 1.88687 16.9246 1.98151 16.9547C2.07614 16.9849 2.17757 17.0004 2.28 17.0004L13.72 17.0004C13.9269 17.0004 14.1253 16.9372 14.2715 16.8247C14.4178 16.7121 14.5 16.5595 14.5 16.4004Z" stroke="currentColor" stroke-width="1.2" stroke-linecap="round" stroke-linejoin="round"/>
<path d="M6.25 5.43598L6.25 12.7309" stroke="currentColor" stroke-width="1.2" stroke-linecap="round" stroke-linejoin="round"/>
<path d="M9.5498 5.43598L9.5498 12.7309" stroke="currentColor" stroke-width="1.2" stroke-linecap="round" stroke-linejoin="round"/>
</svg>
