<svg width="32" height="32" viewBox="0 0 32 32" fill="none" xmlns="http://www.w3.org/2000/svg">
<path d="M10.5636 10.0908H7.25451C7.06644 10.0908 6.88608 10.1655 6.7531 10.2985C6.62012 10.4315 6.54541 10.6119 6.54541 10.7999V21.2001C6.54541 21.2932 6.56375 21.3854 6.59939 21.4714C6.63502 21.5574 6.68725 21.6356 6.7531 21.7015C6.81895 21.7673 6.89712 21.8195 6.98315 21.8552C7.06918 21.8908 7.16139 21.9092 7.25451 21.9092H10.5636C10.6568 21.9092 10.749 21.8908 10.835 21.8552C10.921 21.8195 10.9992 21.7673 11.0651 21.7015C11.1309 21.6356 11.1831 21.5574 11.2188 21.4714C11.2544 21.3854 11.2727 21.2932 11.2727 21.2001V10.7999C11.2727 10.6119 11.198 10.4315 11.0651 10.2985C10.9321 10.1655 10.7517 10.0908 10.5636 10.0908ZM24.7456 10.0908H21.4365C21.2484 10.0908 21.0681 10.1655 20.9351 10.2985C20.8021 10.4315 20.7274 10.6119 20.7274 10.7999V21.2001C20.7274 21.2932 20.7457 21.3854 20.7814 21.4714C20.817 21.5574 20.8693 21.6356 20.9351 21.7015C21.0009 21.7673 21.0791 21.8195 21.1651 21.8552C21.2512 21.8908 21.3434 21.9092 21.4365 21.9092H24.7456C24.8388 21.9092 24.931 21.8908 25.017 21.8552C25.103 21.8195 25.1812 21.7673 25.247 21.7015C25.3129 21.6356 25.3651 21.5574 25.4008 21.4714C25.4364 21.3854 25.4547 21.2932 25.4547 21.2001V10.7999C25.4547 10.6119 25.38 10.4315 25.247 10.2985C25.1141 10.1655 24.9337 10.0908 24.7456 10.0908Z" stroke="currentColor" stroke-width="1.2" stroke-linecap="round" stroke-linejoin="round"/>
<path d="M2.99976 18.8362V13.1634C2.99976 12.9754 3.07446 12.795 3.20745 12.662C3.34043 12.5291 3.52079 12.4543 3.70886 12.4543H5.83616C6.02422 12.4543 6.20458 12.5291 6.33756 12.662C6.47055 12.795 6.54526 12.9754 6.54526 13.1634V18.8362C6.54526 19.0243 6.47055 19.2047 6.33756 19.3377C6.20458 19.4706 6.02422 19.5453 5.83616 19.5453H3.70886C3.52079 19.5453 3.34043 19.4706 3.20745 19.3377C3.07446 19.2047 2.99976 19.0243 2.99976 18.8362ZM29.0001 18.8362V13.1634C29.0001 12.9754 28.9254 12.795 28.7924 12.662C28.6594 12.5291 28.479 12.4543 28.291 12.4543H26.1637C25.9756 12.4543 25.7953 12.5291 25.6623 12.662C25.5293 12.795 25.4546 12.9754 25.4546 13.1634V18.8362C25.4546 19.0243 25.5293 19.2047 25.6623 19.3377C25.7953 19.4706 25.9756 19.5453 26.1637 19.5453H28.291C28.479 19.5453 28.6594 19.4706 28.7924 19.3377C28.9254 19.2047 29.0001 19.0243 29.0001 18.8362Z" stroke="currentColor" stroke-width="1.2" stroke-linecap="round" stroke-linejoin="round"/>
<path d="M12.0893 16H20.1657" stroke="currentColor" stroke-width="2" stroke-linecap="round" stroke-linejoin="round"/>
</svg>
