<svg width="18" height="16" viewBox="0 0 18 16" fill="none" xmlns="http://www.w3.org/2000/svg">
<path d="M14.7817 13.2251H15.7672C16.0941 13.2251 16.4076 13.1012 16.6388 12.8808C16.87 12.6603 16.9998 12.3612 16.9998 12.0494V7.69796C16.9998 7.38614 16.87 7.08709 16.6388 6.8666C16.4076 6.64611 16.0941 6.52224 15.7672 6.52224H13.4144V2.10732C13.4144 1.55999 12.9744 1.11436 12.4271 1.1074L2.01272 0.974933C1.45551 0.967845 1 1.41759 1 1.97485V11.7924C1 12.3447 1.44772 12.7924 2 12.7924H2.87567" stroke="currentColor" stroke-width="1.2" stroke-linecap="round" stroke-linejoin="round"/>
<path d="M10.8536 13.2208H6.73607M12.6721 15.038C12.4333 15.038 12.1968 14.991 11.9762 14.8996C11.7555 14.8082 11.5551 14.6743 11.3862 14.5054C11.2173 14.3365 11.0834 14.1361 10.992 13.9154C10.9006 13.6948 10.8536 13.4583 10.8536 13.2195C10.8536 12.9807 10.9006 12.7443 10.992 12.5236C11.0834 12.303 11.2173 12.1025 11.3862 11.9337C11.5551 11.7648 11.7555 11.6309 11.9762 11.5395C12.1968 11.4481 12.4333 11.4011 12.6721 11.4011C13.1543 11.4011 13.6169 11.5927 13.9579 11.9337C14.2989 12.2747 14.4905 12.7373 14.4905 13.2195C14.4905 13.7018 14.2989 14.1644 13.9579 14.5054C13.6169 14.8464 13.1543 15.038 12.6721 15.038ZM4.91759 15.038C4.67879 15.038 4.44232 14.991 4.22169 14.8996C4.00107 14.8082 3.8006 14.6743 3.63174 14.5054C3.46288 14.3365 3.32893 14.1361 3.23754 13.9154C3.14616 13.6948 3.09912 13.4583 3.09912 13.2195C3.09912 12.9807 3.14616 12.7443 3.23754 12.5236C3.32893 12.303 3.46288 12.1025 3.63174 11.9337C3.8006 11.7648 4.00107 11.6309 4.22169 11.5395C4.44232 11.4481 4.67879 11.4011 4.91759 11.4011C5.39988 11.4011 5.86242 11.5927 6.20345 11.9337C6.54448 12.2747 6.73607 12.7373 6.73607 13.2195C6.73607 13.7018 6.54448 14.1644 6.20345 14.5054C5.86242 14.8464 5.39988 15.038 4.91759 15.038Z" stroke="currentColor" stroke-width="1.2" stroke-linecap="round" stroke-linejoin="round"/>
</svg>
