<svg width="32" height="32" viewBox="0 0 32 32" fill="none" xmlns="http://www.w3.org/2000/svg">
<path d="M21.7778 5C24.9194 5.01615 26.6209 5.14476 27.7308 6.16936C29 7.34105 29 9.22684 29 12.9984V20.9992C29 24.7708 29 26.6566 27.7308 27.8283C26.4615 29 24.4188 29 20.3333 29H11.6667C7.58116 29 5.53841 29 4.2692 27.8283C3 26.6566 3 24.7708 3 20.9992V12.9984C3 9.22684 3 7.34105 4.2692 6.16936C5.37909 5.14476 7.08051 5.01615 10.2222 5" stroke="currentColor" stroke-width="1.2"/>
<path d="M10.5 4.5C10.5 3.67157 11.4234 3 12.5625 3H19.4375C20.5766 3 21.5 3.67157 21.5 4.5V5.5C21.5 6.32843 20.5766 7 19.4375 7H12.5625C11.4234 7 10.5 6.32843 10.5 5.5V4.5Z" stroke="currentColor" stroke-width="1.2"/>
<path d="M20 17.5H16M16 17.5H12M16 17.5V13.5M16 17.5V21.5" stroke="currentColor" stroke-width="2" stroke-linecap="round"/>
</svg>
