<svg width="16" height="16" viewBox="0 0 16 16" fill="none" xmlns="http://www.w3.org/2000/svg">
<path fill-rule="evenodd" clip-rule="evenodd" d="M14 1H2C1.44771 1 1 1.44772 1 2V14C1 14.5523 1.44772 15 2 15H14C14.5523 15 15 14.5523 15 14V2C15 1.44772 14.5523 1 14 1ZM2 0C0.895431 0 0 0.89543 0 2V14C0 15.1046 0.895431 16 2 16H14C15.1046 16 16 15.1046 16 14V2C16 0.895431 15.1046 0 14 0H2Z" fill="currentColor"/>
<path d="M10 9H8M8 9H6M8 9V7M8 9V11" stroke="currentColor" stroke-width="1.2" stroke-linecap="round"/>
<path d="M4.5 1V1.75C4.5 2.37132 5.08762 2.875 5.8125 2.875H10.1875C10.9123 2.875 11.5 2.37132 11.5 1.75V1" stroke="currentColor" stroke-width="1.2"/>
</svg>
