<svg width="16" height="18" viewBox="0 0 16 18" fill="none" xmlns="http://www.w3.org/2000/svg">
<path d="M1.5 3.86096H14.5" stroke="currentColor" stroke-width="1.2"/>
<path d="M13.3182 1H2.68182C2.36838 1 2.06778 1.12967 1.84615 1.36048C1.62451 1.5913 1.5 1.90435 1.5 2.23077V15.7692C1.5 16.0957 1.62451 16.4087 1.84615 16.6395C2.06778 16.8703 2.36838 17 2.68182 17H13.3182C13.6316 17 13.9322 16.8703 14.1539 16.6395C14.3755 16.4087 14.5 16.0957 14.5 15.7692V2.23077C14.5 1.90435 14.3755 1.5913 14.1539 1.36048C13.9322 1.12967 13.6316 1 13.3182 1Z" stroke="currentColor" stroke-width="1.2" stroke-linecap="round" stroke-linejoin="round"/>
<path d="M11.5939 11.046H10.5725C9.67979 11.046 8.79925 10.8383 8.00008 10.4387C7.20193 10.0378 6.32084 9.82982 5.42767 9.83143H4.40746M11.6437 10.4387C11.6437 10.9172 11.5495 11.391 11.3664 11.8331C11.1832 12.2751 10.9149 12.6768 10.5765 13.0151C10.2382 13.3535 9.8365 13.6219 9.39443 13.805C8.95237 13.9881 8.47857 14.0823 8.00008 14.0823C7.52159 14.0823 7.04779 13.9881 6.60572 13.805C6.16365 13.6219 5.76198 13.3535 5.42364 13.0151C5.0853 12.6768 4.81691 12.2751 4.6338 11.8331C4.45069 11.391 4.35645 10.9172 4.35645 10.4387C4.35645 9.47235 4.74033 8.54558 5.42364 7.86227C6.10695 7.17896 7.03373 6.79507 8.00008 6.79507C8.96643 6.79507 9.8932 7.17896 10.5765 7.86227C11.2598 8.54558 11.6437 9.47235 11.6437 10.4387Z" stroke="currentColor" stroke-width="1.2" stroke-linecap="round" stroke-linejoin="round"/>
</svg>
