<svg width="32" height="32" viewBox="0 0 32 32" fill="none" xmlns="http://www.w3.org/2000/svg">
<path d="M25 3H7C6.46957 3 5.96086 3.21071 5.58579 3.58579C5.21071 3.96086 5 4.46957 5 5V27C5 27.5304 5.21071 28.0391 5.58579 28.4142C5.96086 28.7893 6.46957 29 7 29H25C25.5304 29 26.0391 28.7893 26.4142 28.4142C26.7893 28.0391 27 27.5304 27 27V5C27 4.46957 26.7893 3.96086 26.4142 3.58579C26.0391 3.21071 25.5304 3 25 3Z" stroke="currentColor" stroke-width="1.2" stroke-linecap="round" stroke-linejoin="round"/>
<path d="M21.918 20H20.236C18.766 20 17.316 19.658 16 19C14.6857 18.3399 13.2348 17.9973 11.764 18H10.084M22 19C22 19.7879 21.8448 20.5681 21.5433 21.2961C21.2417 22.024 20.7998 22.6855 20.2426 23.2426C19.6855 23.7998 19.024 24.2417 18.2961 24.5433C17.5681 24.8448 16.7879 25 16 25C15.2121 25 14.4318 24.8448 13.7039 24.5433C12.9759 24.2417 12.3145 23.7998 11.7574 23.2426C11.2002 22.6855 10.7583 22.024 10.4567 21.2961C10.1552 20.5681 10 19.7879 10 19C10 17.4087 10.6321 15.8826 11.7574 14.7574C12.8826 13.6321 14.4087 13 16 13C17.5913 13 19.1174 13.6321 20.2426 14.7574C21.3679 15.8826 22 17.4087 22 19Z" stroke="currentColor" stroke-width="1.2" stroke-linecap="round" stroke-linejoin="round"/>
<path d="M5 8H27.5" stroke="currentColor" stroke-width="2"/>
</svg>
