<svg width="38" height="38" viewBox="0 0 38 38" fill="none" xmlns="http://www.w3.org/2000/svg">
<path fill-rule="evenodd" clip-rule="evenodd" d="M19.0002 2.55C9.91511 2.55 2.5502 9.91492 2.5502 19C2.5502 28.0851 9.91511 35.45 19.0002 35.45C28.0853 35.45 35.4502 28.0851 35.4502 19C35.4502 9.91492 28.0853 2.55 19.0002 2.55ZM0.450195 19C0.450195 8.75512 8.75531 0.450001 19.0002 0.450001C29.2451 0.450001 37.5502 8.75512 37.5502 19C37.5502 29.2449 29.2451 37.55 19.0002 37.55C8.75531 37.55 0.450195 29.2449 0.450195 19ZM19.0002 10.95C19.5801 10.95 20.0502 11.4201 20.0502 12V21.625C20.0502 22.2049 19.5801 22.675 19.0002 22.675C18.4203 22.675 17.9502 22.2049 17.9502 21.625V12C17.9502 11.4201 18.4203 10.95 19.0002 10.95ZM17.9502 26C17.9502 25.4201 18.4203 24.95 19.0002 24.95H19.0177C19.5976 24.95 20.0677 25.4201 20.0677 26C20.0677 26.5799 19.5976 27.05 19.0177 27.05H19.0002C18.4203 27.05 17.9502 26.5799 17.9502 26Z" fill="#616161"/>
</svg>
