<svg width="18" height="18" viewBox="0 0 18 18" fill="none" xmlns="http://www.w3.org/2000/svg">
<path d="M9 12.5V16.5M6 16.5H12M2 12.5H16C16.2652 12.5 16.5196 12.3946 16.7071 12.2071C16.8946 12.0196 17 11.7652 17 11.5V2.5C17 2.23478 16.8946 1.98043 16.7071 1.79289C16.5196 1.60536 16.2652 1.5 16 1.5H2C1.73478 1.5 1.48043 1.60536 1.29289 1.79289C1.10536 1.98043 1 2.23478 1 2.5V11.5C1 11.7652 1.10536 12.0196 1.29289 12.2071C1.48043 12.3946 1.73478 12.5 2 12.5Z" stroke="currentColor" stroke-width="1.2" stroke-linecap="round" stroke-linejoin="round"/>
</svg>
