<svg width="16" height="18" viewBox="0 0 16 18" fill="none" xmlns="http://www.w3.org/2000/svg">
<path d="M8.47476 1.35006L14.5935 5.86153C14.8491 6.05003 15 6.34877 15 6.6664L15 17L0.999999 17L0.999999 6.6664C0.999999 6.34877 1.1509 6.05003 1.40655 5.86153L7.52524 1.35006C7.80753 1.14192 8.19247 1.14192 8.47476 1.35006Z" stroke="currentColor" stroke-width="1.2" stroke-linecap="round" stroke-linejoin="round"/>
<path d="M6 12V17H10V12C10 11.7348 9.89464 11.4804 9.70711 11.2929C9.51957 11.1054 9.26522 11 9 11H7C6.73478 11 6.48043 11.1054 6.29289 11.2929C6.10536 11.4804 6 11.7348 6 12Z" stroke="currentColor" stroke-width="1.2" stroke-linecap="round" stroke-linejoin="round"/>
</svg>
