<svg width="32" height="32" viewBox="0 0 32 32" fill="none" xmlns="http://www.w3.org/2000/svg">
<path d="M11.2202 3.72439C7.04583 2.74091 3 5.71503 3 9.76736C3 13.8197 7.04439 16.7938 11.2202 15.8103C14.5525 15.0263 19.1833 12.9833 22.6788 13.26C23.9456 13.3597 24.8484 14.312 26.0342 14.5925C27.6361 14.9702 28.263 12.8836 28.6082 11.9524C29.1306 10.5306 29.1306 9.00411 28.6082 7.58227C28.263 6.65114 27.6361 4.56577 26.0342 4.94221C24.8484 5.22267 23.9456 6.17498 22.6788 6.2747C19.1833 6.55142 14.5525 4.50843 11.2202 3.72439Z" stroke="currentColor" stroke-width="1.2" stroke-linecap="round" stroke-linejoin="round"/>
<path d="M6.61113 15.3768C8.59288 17.1343 8.45132 20.0735 8.51632 22.7011C8.54232 23.793 9.50431 24.7254 10.7234 24.7254H12.4856C13.4534 24.7254 14.0355 22.8507 14.3345 22.2599C14.7302 21.4746 14.5612 20.5796 14.0875 19.8292C13.085 18.2474 12.3888 17.2465 13.111 15.3768M22.4998 6.65137L23.0472 8.54603C23.282 9.3478 23.282 10.1874 23.0472 10.9891L22.4998 12.8838M11.6666 24.7254C11.6666 25.8871 11.6666 26.468 11.4153 26.9255C11.0802 27.5362 10.4374 28.0224 9.62853 28.2754C9.02187 28.4649 7.42723 28.4649 5.88892 28.4649M23.0471 8.54597C23.2819 9.34774 23.2819 10.1873 23.0471 10.9891L22.4997 12.8837" stroke="currentColor" stroke-width="1.2" stroke-linecap="round" stroke-linejoin="round"/>
<path d="M22.5 6.65137L23.0482 8.54603C23.2833 9.3478 23.2833 10.1874 23.0482 10.9891L22.5 12.8838" stroke="currentColor" stroke-width="2" stroke-linecap="round" stroke-linejoin="round"/>
</svg>
