<svg width="18" height="18" viewBox="0 0 18 18" fill="none" xmlns="http://www.w3.org/2000/svg">
<path d="M5.93254 1.12145C3.25339 0.490248 0.656738 2.39906 0.656738 4.99988C0.656738 7.6007 3.25246 9.50952 5.93254 8.87831C8.07123 8.37511 11.0433 7.0639 13.2868 7.2415C14.0998 7.3055 14.6792 7.9167 15.4403 8.0967C16.4684 8.33911 16.8707 6.9999 17.0923 6.40229C17.4276 5.48974 17.4276 4.51003 17.0923 3.59747C16.8707 2.99987 16.4684 1.66146 15.4403 1.90306C14.6792 2.08306 14.0998 2.69426 13.2868 2.75826C11.0433 2.93587 8.07123 1.62466 5.93254 1.12145Z" stroke="currentColor" stroke-width="1.2" stroke-linecap="round" stroke-linejoin="round"/>
<path d="M2.97378 8.59995C4.24568 9.72796 4.15483 11.6144 4.19655 13.3008C4.21323 14.0016 4.83065 14.6 5.61307 14.6H6.74406C7.36518 14.6 7.73878 13.3968 7.93068 13.0176C8.18469 12.5136 8.07623 11.9392 7.77216 11.4576C7.12879 10.4424 6.68195 9.79996 7.14547 8.59995M13.1713 2.99991L13.5226 4.21592C13.6733 4.7305 13.6733 5.26935 13.5226 5.78393L13.1713 6.99994M6.21843 14.6C6.21843 15.3456 6.21843 15.7184 6.05712 16.012C5.84205 16.404 5.42952 16.716 4.91037 16.8784C4.52101 17 3.49756 17 2.51025 17M13.5226 4.21588C13.6732 4.73047 13.6732 5.26931 13.5226 5.7839L13.1712 6.99991" stroke="currentColor" stroke-width="1.2" stroke-linecap="round" stroke-linejoin="round"/>
</svg>
