<svg width="18" height="18" viewBox="0 0 18 18" fill="none" xmlns="http://www.w3.org/2000/svg">
<path d="M17 17H15.2222H10.7778M10.7778 17V12.5556C10.7778 12.3198 10.6841 12.0937 10.5174 11.927C10.3507 11.7603 10.1246 11.6667 9.88889 11.6667H8.11111C7.87536 11.6667 7.64927 11.7603 7.48257 11.927C7.31587 12.0937 7.22222 12.3198 7.22222 12.5556V17M10.7778 17H7.22222M1 17H2.77778H7.22222M6.33333 4.55556H7.22222M6.33333 8.11111H7.22222M10.7778 4.55556H11.6667M10.7778 8.11111H11.6667" stroke="currentColor" stroke-width="1.2" stroke-linecap="round" stroke-linejoin="round"/>
<path d="M2.5 16.7692V2.23077C2.5 1.90435 2.62451 1.5913 2.84615 1.36048C3.06778 1.12967 3.36838 1 3.68182 1H14.3182C14.6316 1 14.9322 1.12967 15.1539 1.36048C15.3755 1.5913 15.5 1.90435 15.5 2.23077V16.7692" stroke="currentColor" stroke-width="1.2" stroke-linecap="round" stroke-linejoin="round"/>
</svg>
