<svg width="32" height="32" viewBox="0 0 32 32" fill="none" xmlns="http://www.w3.org/2000/svg">
<path d="M26.1111 29V5.88889C26.1111 5.12271 25.8067 4.38791 25.265 3.84614C24.7232 3.30436 23.9884 3 23.2222 3H8.77778C8.0116 3 7.2768 3.30436 6.73502 3.84614C6.19325 4.38791 5.88889 5.12271 5.88889 5.88889V29M26.1111 29H29M26.1111 29H18.8889M5.88889 29H3M5.88889 29H13.1111M18.8889 29V21.7778C18.8889 21.3947 18.7367 21.0273 18.4658 20.7564C18.1949 20.4855 17.8275 20.3333 17.4444 20.3333H14.5556C14.1725 20.3333 13.8051 20.4855 13.5342 20.7564C13.2633 21.0273 13.1111 21.3947 13.1111 21.7778V29M18.8889 29H13.1111M11.6667 8.77778H13.1111M11.6667 14.5556H13.1111M18.8889 8.77778H20.3333M18.8889 14.5556H20.3333" stroke="currentColor" stroke-width="1.2" stroke-linecap="round" stroke-linejoin="round"/>
<path d="M11 9H12.6667M11 15H12.6667M19.3333 9H21M19.3333 15H21" stroke="currentColor" stroke-width="2" stroke-linecap="round" stroke-linejoin="round"/>
</svg>
