<svg width="140" height="58" viewBox="0 0 140 58" fill="none" xmlns="http://www.w3.org/2000/svg">
<g filter="url(#filter0_d_1389_3610)">
<rect x="10" y="6" width="120" height="38" rx="4" fill="#FF7600" shape-rendering="crispEdges"/>
<path d="M34 33H43" stroke="white" stroke-width="1.2" stroke-linecap="round" stroke-linejoin="round"/>
<path d="M38.5 16.5C38.8978 16.1022 39.4374 15.8787 40 15.8787C40.2786 15.8787 40.5544 15.9335 40.8118 16.0401C41.0692 16.1467 41.303 16.303 41.5 16.5C41.697 16.697 41.8532 16.9308 41.9598 17.1882C42.0665 17.4456 42.1213 17.7214 42.1213 18C42.1213 18.2786 42.0665 18.5544 41.9598 18.8118C41.8532 19.0691 41.697 19.303 41.5 19.5L29 32L25 33L26 29L38.5 16.5Z" stroke="white" stroke-width="1.2" stroke-linecap="round" stroke-linejoin="round"/>
<path d="M65.3125 23.2812V24.4844H59.625V26.0156H63.6875V29.625H55.5312V31H64.125V32.1875H54.0469V28.5H62.2031V27.2031H54.0156V26.0156H58.1562V24.4844H52.5156V23.2812H56.3125C56.7109 21.875 56.8047 20.8125 56.8281 20.0312H53.7188V18.8125H58.2812V19.4219C58.2812 20.2109 58.2812 21.5469 57.8125 23.2812H61.875C62.25 21.8828 62.3359 20.8125 62.3594 20.0312H59.2812V18.8125H63.7969V19.3906C63.7969 20.1875 63.7969 21.5156 63.3594 23.2812H65.3125ZM73.875 19.0938V20.2656H68.6406V21.7812H73.4844V22.9531H68.6406V24.5312C71.4453 24.5078 73.0781 24.4375 74.9688 24.125L75.125 25.3125C73.0938 25.6562 71.3594 25.7188 68.2969 25.7188H67.1406V19.0938H73.875ZM77.9531 18.3281V26.125H76.4688V18.3281H77.9531ZM70.25 26.7812V28.2344H76.4844V26.7812H77.9531V32.1562H68.7969V26.7812H70.25ZM70.25 30.9531H76.4844V29.3906H70.25V30.9531ZM88.4219 21.1562C88.4219 22.4766 89.0547 24.125 90.4688 25.0938C91.8594 24.1406 92.5 22.5156 92.5 21.1562V19.4062H94V21.1562C93.9844 22.8594 94.9062 24.6094 96.7812 25.3906L95.9688 26.5C94.625 25.9141 93.7188 24.8203 93.2344 23.5156C92.7656 24.8594 91.875 26.0469 90.4531 26.6719C89.0234 26.0469 88.1172 24.8125 87.6562 23.4688C87.1641 24.7578 86.2578 25.8984 84.9375 26.5L84.1406 25.3906C85.9688 24.5781 86.9219 22.7188 86.9375 21.1562V19.4062H88.4219V21.1562ZM96.875 29.2656V30.4844H84.0781V29.2656H96.875ZM109.547 18.3281V32.3281H108.047V18.3281H109.547ZM105.375 19.8281C105.375 23.9219 103.625 27.4844 98.8281 29.7812L98.0469 28.5781C101.773 26.8047 103.586 24.2812 103.875 21.0156H98.7188V19.8281H105.375Z" fill="white"/>
</g>
<defs>
<filter id="filter0_d_1389_3610" x="0" y="0" width="140" height="58" filterUnits="userSpaceOnUse" color-interpolation-filters="sRGB">
<feFlood flood-opacity="0" result="BackgroundImageFix"/>
<feColorMatrix in="SourceAlpha" type="matrix" values="0 0 0 0 0 0 0 0 0 0 0 0 0 0 0 0 0 0 127 0" result="hardAlpha"/>
<feOffset dy="4"/>
<feGaussianBlur stdDeviation="5"/>
<feComposite in2="hardAlpha" operator="out"/>
<feColorMatrix type="matrix" values="0 0 0 0 0 0 0 0 0 0 0 0 0 0 0 0 0 0 0.15 0"/>
<feBlend mode="normal" in2="BackgroundImageFix" result="effect1_dropShadow_1389_3610"/>
<feBlend mode="normal" in="SourceGraphic" in2="effect1_dropShadow_1389_3610" result="shape"/>
</filter>
</defs>
</svg>
