<svg width="20" height="20" viewBox="0 0 20 20" fill="none" xmlns="http://www.w3.org/2000/svg">
<path d="M16.4435 12.8282L15.8947 12.5855L15.8028 12.7935L15.8718 13.0102L16.4435 12.8282ZM14.1139 15.6918L14.2569 15.1091L13.9886 15.0433L13.7642 15.2043L14.1139 15.6918ZM17.11 16.4267L16.9671 17.0094H16.9671L17.11 16.4267ZM17.4674 16.0443L18.0391 15.8623V15.8623L17.4674 16.0443ZM16.4383 10C16.4383 10.9213 16.244 11.7956 15.8947 12.5855L16.9922 13.0708C17.4078 12.131 17.6383 11.0916 17.6383 10H16.4383ZM10.0383 3.6C13.573 3.6 16.4383 6.46538 16.4383 10H17.6383C17.6383 5.80264 14.2357 2.4 10.0383 2.4V3.6ZM3.63833 10C3.63833 6.46538 6.50371 3.6 10.0383 3.6V2.4C5.84097 2.4 2.43833 5.80264 2.43833 10H3.63833ZM10.0383 16.4C6.50371 16.4 3.63833 13.5346 3.63833 10H2.43833C2.43833 14.1974 5.84097 17.6 10.0383 17.6V16.4ZM13.7642 15.2043C12.7149 15.957 11.4292 16.4 10.0383 16.4V17.6C11.6884 17.6 13.2172 17.0735 14.4637 16.1794L13.7642 15.2043ZM13.971 16.2745L16.9671 17.0094L17.253 15.844L14.2569 15.1091L13.971 16.2745ZM16.9671 17.0094C17.6498 17.1769 18.2523 16.5321 18.0391 15.8623L16.8956 16.2264C16.8246 16.0031 17.0254 15.7882 17.253 15.844L16.9671 17.0094ZM18.0391 15.8623L17.0152 12.6462L15.8718 13.0102L16.8956 16.2264L18.0391 15.8623Z" fill="#616161"/>
</svg>
