<svg width="24" height="24" viewBox="0 0 24 24" fill="none" xmlns="http://www.w3.org/2000/svg">
<path d="M12 12.7612C12.4205 12.7612 12.7613 12.4204 12.7613 12C12.7613 11.5795 12.4205 11.2387 12 11.2387C11.5796 11.2387 11.2388 11.5795 11.2388 12C11.2388 12.4204 11.5796 12.7612 12 12.7612Z" fill="#616161" stroke="#616161" stroke-width="1.2" stroke-linecap="round" stroke-linejoin="round"/>
<path d="M17.3289 12.7612C17.7493 12.7612 18.0902 12.4204 18.0902 12C18.0902 11.5795 17.7493 11.2387 17.3289 11.2387C16.9085 11.2387 16.5676 11.5795 16.5676 12C16.5676 12.4204 16.9085 12.7612 17.3289 12.7612Z" fill="#616161" stroke="#616161" stroke-width="1.2" stroke-linecap="round" stroke-linejoin="round"/>
<path d="M6.67118 12.7612C7.09162 12.7612 7.43245 12.4204 7.43245 12C7.43245 11.5795 7.09162 11.2387 6.67118 11.2387C6.25074 11.2387 5.90991 11.5795 5.90991 12C5.90991 12.4204 6.25074 12.7612 6.67118 12.7612Z" fill="#616161" stroke="#616161" stroke-width="1.2" stroke-linecap="round" stroke-linejoin="round"/>
<path d="M12 22C17.5228 22 22 17.5228 22 12C22 6.47715 17.5228 2 12 2C6.47715 2 2 6.47715 2 12C2 17.5228 6.47715 22 12 22Z" stroke="#616161" stroke-width="1.2" stroke-linecap="round" stroke-linejoin="round"/>
</svg>
