<svg width="21" height="20" viewBox="0 0 21 20" fill="none" xmlns="http://www.w3.org/2000/svg">
<path d="M16.658 8.0804C16.658 13.1525 10.5001 17.5 10.5001 17.5C10.5001 17.5 4.34229 13.1525 4.34229 8.0804C4.34229 6.35086 4.99106 4.69215 6.14587 3.46918C7.30069 2.2462 8.86696 1.55914 10.5001 1.55914C12.1333 1.55914 13.6996 2.2462 14.8544 3.46918C16.0092 4.69215 16.658 6.35086 16.658 8.0804Z" stroke="currentColor" stroke-width="1.2" stroke-linecap="round" stroke-linejoin="round"/>
<path d="M10.5 9.52954C11.514 9.52954 12.3359 8.70756 12.3359 7.6936C12.3359 6.67964 11.514 5.85767 10.5 5.85767C9.48604 5.85767 8.66406 6.67964 8.66406 7.6936C8.66406 8.70756 9.48604 9.52954 10.5 9.52954Z" stroke="currentColor" stroke-linecap="round" stroke-linejoin="round"/>
</svg>
