<svg width="32" height="32" viewBox="0 0 32 32" fill="none" xmlns="http://www.w3.org/2000/svg">
<path d="M25.8525 12.9286C25.8525 21.044 16 28 16 28C16 28 6.14746 21.044 6.14746 12.9286C6.14746 10.1614 7.18549 7.50744 9.0332 5.55068C10.8809 3.59392 13.3869 2.49463 16 2.49463C18.6131 2.49463 21.1191 3.59392 22.9668 5.55068C24.8145 7.50744 25.8525 10.1614 25.8525 12.9286Z" stroke="currentColor" stroke-width="1.2" stroke-linecap="round" stroke-linejoin="round"/>
<path d="M16 15.2473C17.6223 15.2473 18.9375 13.9322 18.9375 12.3098C18.9375 10.6875 17.6223 9.37231 16 9.37231C14.3777 9.37231 13.0625 10.6875 13.0625 12.3098C13.0625 13.9322 14.3777 15.2473 16 15.2473Z" stroke="currentColor" stroke-linecap="round" stroke-linejoin="round"/>
</svg>
